<?xml version="1.0" encoding="UTF-8"?>
<svg viewBox="0 0 383.74 299.09" xmlns="http://www.w3.org/2000/svg">
 <g fill-rule="evenodd">
  <g fill="#fadb86">
   <path d="m273.49 4.18c0 1.073-0.47501 2.315-0.015015 3.352 0.20401 0.461 1.132 0.639 1.438 0.17 0.61099-0.94 0.32498-1.082 1.357-1.847 1.719-1.275 2.039 0.794 1.654 2.175-0.371 1.333-2.268 0.989-2.935 2.149 0-2.725-2.985-1.284-4.155-2.553-1.212-1.316 1.263-3.732 2.656-3.446"/>
   <path d="m263.74 5.68c0.24799 1.58-2.25 1.292-2.25 2.444 0 1.245-2.711-0.44-3-0.944 1.05-0.525 4.29-3.395 5.25-1.5"/>
   <path d="m283.24 8.68c0.23001 1.093-0.832 1.5-1.722 1.5-1.31 0-1.194-1.312-1.278-2.25-0.03299-0.359-1.011-0.489-0.556-0.944 0.46799-0.467 0.88599-0.556 1.527-0.556 1.15 0 1.285 1.681 2.029 2.25"/>
   <path d="m269.74 7.93c-0.677 0.886-5.501 3.201-3 4.5-1.742 0.871-2.57-0.563-3.392-2.18-1.085-2.137 2.875-3.187 4.142-3.82-0.23801 0.954 1.539 1.649 2.25 1.5"/>
   <path d="m258.49 9.43c-0.74301 0.742-1.609 1.339-2.424 1.997-1.12 0.907-1.663 2.321-2.827 3.189-1.503 1.122-1.415-1.527-2.193-2.187-2.305-1.953 0.75101-3.246 2.178-3.764 2.158-0.782 3.478-1.025 5.266 0.765"/>
   <path d="m274.24 11.68v3c-2.469-1.234-5.024 2.312-5.901-1.767-0.18399-0.854 1.285-2.45 1.904-2.954 1.655-1.345 2.942 0.665 3.997 1.721"/>
   <path d="m280.99 11.68c0 1.464-0.45801 2.904-1.873 3.569-1.463 0.688-2.069-0.441-2.627-1.319-0.84399-1.329 0.11899-3.283 1.642-3.74 1.14-0.343 1.684 1.674 2.858 1.49"/>
   <path d="m262.99 12.43c-0.836 1.671-3.755 2.935-3.895 4.685-0.23001 2.881-2.872 0.152-3.681-0.827-1.169-1.414 1.02-2.933 1.946-4.003 1.513-1.748 4.107-1.38 5.63 0.145"/>
   <path d="m250.24 13.93c-0.97501 1.949-3.262 2.772-4.236 4.722-0.89101 1.782-3.462 0.412-3.927-1.002-0.121-0.368-0.77701-1.175-0.804-1.429-0.077011-0.766 2.433-2.537 2.978-2.99 2.275-1.892 4.049-1.243 5.989 0.699"/>
   <path d="m268.24 16.93c-0.89499 0.509-1.909 3.897-0.75 4.5-1.628 0-3.564 0.708-5.005-0.338-1.476-1.072-2.043-2.694-0.91098-4.237 0.76599-1.045 2.795-2.619 4.152-2.664 1.217-0.04 2.773 1.476 2.514 2.739"/>
   <path d="m241.99 19.93c-1.305 0.87-2.547 1.816-3.11 3.34-0.332 0.901-0.41699 2.924-1.39 3.41-2.122 1.061-4.428-4.811-5.219-6.009-0.78801-1.193-0.832-1.46-0.19501-2.692 0.635-1.229 1.792-2.248 3.184-2.464 3.334-0.519 5.373 1.698 6.73 4.415"/>
   <path d="m276.49 19.93c0.52499 3.359-4.516 3.35-6.396 2.086-1.627-1.093-1.637-3.146-0.080017-4.31 0.893-0.667 2.071-1.526 3.228-1.526 0.60199 0 2.032 0.382 1.749-0.75 1.904 0.952 2.451 2.595 1.499 4.5"/>
   <path d="m282.49 20.68c0.045013 0.448-0.47101 2.884-0.89999 3.021-0.72299 0.229-1.654-0.09-2.376-0.2-2.579-0.394-1.519-1.308-1.274-3.157 0.245-1.854 1.264-4.5 3.674-4.15 2.065 0.298 1.52 3.199 0.87601 4.486"/>
   <path d="m256.24 19.18c-0.883 0.441-1.93 0.621-2.709 1.254-0.951 0.772-0.607 2.022-1.351 2.861-1.195 1.348-3.303-1.587-3.995-2.318-2.031-2.143 1.253-3.271 2.961-4.125 2.946-1.473 3.096 0.8 5.094 2.328"/>
   <path d="m262.24 22.93c-0.78299 0.598-0.73599 1.868-1.656 2.328-0.479 0.164-0.926 0.388-1.344 0.672-0.39401 0.394-0.17499 1.247-0.75 1.5-1.387 0.61-3.272-2.069-3.952-2.945-1.481-1.909 0.59999-3.452 2.269-4.213 2.445-1.116 3.548 1.715 5.433 2.658"/>
   <path d="m232.24 22.93c-0.14 1.4 2.219 2.92 1.292 4.231-1.111 1.572-2.994 1.613-3.879 3.583-0.40199 0.897-1.067 3.444-2.563 2.62-1.12-0.617-1.799-2.068-2.395-3.135-1.503-2.697-4.861-5.703-1.467-8.697 2.391-2.108 7.552-1.522 9.012 1.398"/>
   <path d="m249.49 25.18c-1.143 0.571-2.42 1.283-3.164 2.357-0.506 0.73-0.268 2.017-0.864 2.61-0.73801 0.735-2.554 0.209-3.275-0.273-1.063-0.711-0.60001-2.719-1.727-2.99-1.188-0.286-1.115-2.139-0.646-3.031 0.696-1.322 2.059-1.421 3.302-1.896 3.446-1.317 4.436 0.637 6.374 3.223"/>
  </g>
  <path d="m88.987 23.68c3.191 3.191 3.946 7.555 4.794 11.799 0.446 2.235 0.839 4.825 0.553 7.103-0.283 2.252-1.55 4.232-2.379 6.303-0.592 1.48-1.091 3.036-2.011 4.357-1.333 1.913-2.969 1.864-5.098 2.062-4.871 0.454-9.715 2.191-13.593 5.207-1.666 1.296-3.166 2.786-4.686 4.246-1.561 1.5-3.679 2.815-4.881 4.627-0.87 1.31-2.664 0.944-3.957 2.051-1.886 1.615-4.302 0.792-6.462 1.662-3.413 1.375-5.263 5.067-7.031 8.051-1.268 2.14-1.799 4.66-3.29 6.676-1.521 2.058-3.405 3.803-5.208 5.606 0-5.555 2.198-11.061 2.743-16.571 0.292-2.961 0.306-5.947 1.189-8.816 0.728-2.363 1.6-5.584 3.127-7.553 1.202-1.549 2.953-3.085 4.376-4.44 1.819-1.731 4.254-2.594 6.075-4.286 1.734-1.611 2.843-3.879 4.206-5.792 1.412-1.982 0.979-5.136 1.251-7.476 0.519-4.453 0.361-9.133 3.643-12.627 3.201-3.408 8.206-4.021 12.627-4.451 1.908-0.185 14.779-1.387 14.012 2.262" fill="#608a46"/>
  <path d="m269.74 23.68c0.38901 0.675 1.402 1.132 2.075 1.437 1.24 0.562 1.361-0.687 2.425-0.687 0.43301 0 1.965 0.577 2.317 0.819 0.556 0.383 0.51502 1.659 1.433 1.431-0.57599 1.73-1.378 6.776-3.786 6.896-0.91299 0.044998-3.309-1.654-2.697-2.738 1.188-2.105 1.594-3.799-0.267-5.658 0 2.235 0.414 5.788-2.277 6.74-2.46 0.87-4.25-0.638-6.207-1.734-3.299-1.849-1.17-3.622 0.646-5.548 0.80801-0.857 1.946-1.888 3.209-1.35 0.79501 0.339 2.465 1.578 3.129 0.392" fill="#fadb86"/>
  <path d="m111.49 35.68c1.066 3.197 1.986 6.439 2.958 9.666 0.886 2.941 1.538 6.081 3.792 8.334 0-5.583-1.16-11.052-2.25-16.5 4.033 0 7.256 2.762 9.959 5.449 3.174 3.153 5.3 7.062 4.97 11.693-0.329 4.614-1.625 9.083-2.27 13.652-0.772 5.479-1.473 10.966-2.159 16.456 1.355-1.036 1.525-2.742 1.508-4.323-0.024002-2.156 0.40299-4.266 0.783-6.377 0.758-4.211 1.353-8.45 2.11-12.662 0.724-4.024 1.923-8.275 1.56-12.397-0.31-3.514-2.408-6.504-4.461-9.241 3.488-1.163 6.801-2.455 10.218-3.766 2.865-1.099 6.901-1.679 9.527 0.286 2.261 1.692 3.739 5.301 4.815 7.844 1.406 3.322 2.673 6.635 3.771 10.083 1.19 3.738 2.68 6.731 2.011 10.765-0.2 1.208-0.207 2.342-1.588 2.596-1.661 0.306-2.93 0.931-4.014 2.267-0.923 1.137-1.59 2.504-1.973 3.915-0.254 0.937-0.237 2.542-1.469 2.757-1.343 0.235-2.241 0.443-3.441 1.223-1.077 0.7-1.628 2.29-2.634 2.793-1.477 0.738-2.001 2.053-2.452 3.511-0.452 1.463-1.567 2.095-2.801 2.851-3.346 2.049-4.3 5.323-6.859 7.974-2.607 2.7-4.727 4.37-5.619 8.208-0.643 2.772-4.157 2.023-6.271 3.511-2.407 1.694-1.385 4.524-2.36 6.92-0.517 1.271-1.628 2-2.914 2.363-1.29 0.365-2.356 1.74-3.102 2.77-0.695 0.959-1.45 2.137-1.567 3.35-0.119 1.236 0.315 1.978-1.319 1.845-2.81-0.228-5.454 5.205-6.378 7.248-0.353 0.78-0.323 2.13-0.882 2.765-0.707 0.80299-2.095 0.10899-2.699 1.171 1.128-3.384 0.686-7.096 2.043-10.422 1.218-2.985 1.355-5.98 3.026-8.784 1.899-3.186 3.73-6.301 5.884-9.334 0.62-0.874 4.902-5.309 3.493-6.517-1.301-1.115-5.446 3.711-6.109 4.563-1.807 2.322-3.191 4.932-4.705 7.445-3.699 6.145-5.698 12.13-7.409 19.082-3.594 14.608-8.089 29.035-11.397 43.704-0.806 3.571-2.303 6.886-3.185 10.43-0.931 3.74-1.823 7.468-2.909 11.169-1.063 3.626-2.037 7.28-3.176 10.883-0.104 0.328-0.612 2.783-1.118 2.783h-5.94c4.041-6.734 5.445-14.623 6.148-22.337 0.792-8.683 1.406-17.379 1.806-26.088 0.398-8.674 0.771-17.358 1.731-25.992 0.885-7.962 0.441-16.022 2.7-23.77 2.196-7.532 4.55-15.109 7.958-22.174 0.78799-1.634 1.226-3.414 2.01-5.04 0.737-1.527 1.89-2.798 2.586-4.352 1.531-3.412 3.546-6.711 4.731-10.256 2.688-8.043 3.566-15.903 3.316-24.373-0.113-3.807-1.166-7.352-1.693-11.084-0.469-3.322-3.196-7.014-5.043-9.784 2.318 2.318 5.148 3.874 8.016 5.399 3.6 1.912 7.09 4.025 10.736 5.849" fill="#608a46"/>
  <g fill="#fadb86">
   <path d="m280.99 28.18l-1.5 1.5c0.26099-1.237-2.338-3.199-0.31799-4.074 1.135-0.491 1.818 1.817 1.818 2.574"/>
   <path d="m256.24 28.93c-0.87601 1.752-2.364 3.144-2.23 5.252 0.133 2.089 1.236 3.364 2.852 4.561 1.227 0.908 3.553 2.046 2.624 3.929-0.63501 1.284-1.46 3.537-3.146 3.683-1.626 0.141-3.35-1.706-4.666-2.485-1.576-0.934-3.144-2.493-2.986-4.478 0.127-1.615 2.254-2.301 3.503-2.782 2.799-1.078 0.648-0.816 1.05-2.431-0.852 1.594-7.862-2.528-5.181-5.994 1.109-1.434 3.107-2.53 4.958-2.195 1.594 0.289 2.061 2.052 3.222 2.94"/>
   <path d="m224.74 33.43c-0.537 0.537-0.954 1.227-1.656 1.578-0.666 0.333-1.447 0.287-2.094 0.672-1.218 0.727-2.398 2.257-2.25 3.75-3.399-1.133-3.8-4.2-6.035-6.398-0.75-0.738-1.987-1.013-1.376-2.291 0.539-1.125 1.783-1.792 2.768-2.475 1.555-1.077 5.963-1.878 7.456-0.353 1.472 1.505 2.26 3.663 3.187 5.517"/>
   <path d="m241.24 31.93c-2.029 2.028-4.047 3.612-3 6.75-1.22-2.14-3.405 1.127-4.896-0.707-1.523-1.875-2.588-3.748-3.354-6.043-0.063995 0.222-0.046997 0.43 0.052994 0.625-0.463-0.354 4.006-3.587 4.411-3.672 0.454-0.094999 0.752-0.76 1.288-0.891 0.768-0.187 1.636-0.060001 2.367 0.208 1.613 0.589 2.417 2.301 3.131 3.73"/>
   <path d="m265.99 34.18c0 1.824-2.323 5.196-4.298 5.275-2.616 0.105-4.301-2.606-5.466-4.562-1.336-2.242 0.89902-3.372 2.67-4.649 1.959-1.412 5.778 2.62 7.094 3.936"/>
   <path d="m278.74 35.68c-1.134 1.133-2.3 2.275-3.75 3 0.92001-1.839 1.372-5.973 3.841-6.569 0.73001-0.177-0.133 3.149-0.091003 3.569"/>
   <path d="m249.49 35.68c-0.82201 0.821-2.186 1.435-2.321 2.729-0.093994 0.882 0.15199 2.214-0.965 2.545-1.741 0.516-4.009-1.155-5.005-2.439-1.735-2.239-1.279-3.831 1.139-5.316 2.945-1.81 5.157 0.485 7.152 2.481"/>
   <path d="m211.99 34.93c0.871 1.744 5.815 5.499 1.314 6.296-1.786 0.316-2.475 2.514-3.685 3.607-1.804 1.63-3.565-0.063999-4.794-1.477-1.817-2.088-4.795-5.922-2.45-8.591 2.421-2.755 7.342-2.809 9.615 0.165"/>
   <path d="m271.24 34.18c0.91 0.455 3.245 0.698 2.919 2.116-0.26199 1.141-0.71802 2.709-1.479 3.609-1.211 1.431-5.308 1.683-6.445 0.002003-1.585-2.344 3.822-7.785 5.005-5.727"/>
   <path d="m232.24 39.43c-1.381 1.38-2.814 2.708-4.195 4.088-0.61101 0.612 0.47899 3.345-1.143 2.895-1.135-0.316-1.425-1.73-2.168-2.472-0.481-0.479-1.165-0.502-1.592-1.094-0.52301-0.726-0.897-1.417-1.565-2.032-2.544-2.341 2.931-5.355 4.978-5.975 2.93-0.889 4.405 2.668 5.685 4.59"/>
   <path d="m115.24 39.43c-0.918 0.229-1.099-1.448-1.5-2.25l1.5 2.25"/>
   <path d="m205.24 46.18c-1.99 0.995-3 3.082-3 5.25-1.305-2.303-4.346 1.137-5.32-1.306-0.98401-2.464-6.312-4.228-4.238-7.767 1.091-1.861 4.787-3.489 6.893-2.75 2.735 0.961 4.018 4.453 5.665 6.573"/>
   <path d="m241.99 43.18c-1.08 1.414-2.186 0.906-2.285 2.773-0.044998 0.833-1.176 3.032-2.072 3.176-1.343 0.214-2.599 0.982-3.992 0.914-0.823-0.041-2.99-0.978-3.688-1.449-1.322-0.893 0.274-2.428-0.276-2.716-1.293-0.678 1.033-2.676 1.623-3.207 3.502-3.154 7.433-2.75 10.69 0.509"/>
   <path d="m265.24 40.93c0.98498 0.985 4.838 1.38 4.536 3.273-0.18701 1.167-1.432 2.654-2.299 3.389-1.481 1.255-3.039 0.317-4.561-0.248-2.829-1.051-3.313-2.667-2.017-5.464 0.45599-0.98 4.655-2.455 4.341-0.95"/>
   <path d="m222.49 46.18c-1.697 1.697-2.989 3.719-3.75 6-2.146-1.073-3.712-2.661-5.309-4.413-1.857-2.04-1.431-2.591 0.446-4.148 1.155-0.96 2.874-3.08 4.579-2.774 2.241 0.4 3.328 3.57 4.034 5.335"/>
   <path d="m273.49 44.68c-0.38599 0.467-0.823 0.878-1.314 1.232-0.52402 0.103-1.043 0.225-1.558 0.368-0.629 0.463 0.405 1.667-0.87799 1.399 1.926-1.472 1.001-6.549 4.5-6-0.25 1.001-0.5 2.001-0.75 3.001"/>
   <path d="m253.24 47.68c0 2.173-0.795 6.119-3.342 6.692-3.449 0.776-4.849-3.248-7.188-4.788-2.929-1.929-0.888-4.359 1.544-5.905 4.021-2.556 6.325 1.339 8.986 4.001"/>
   <path d="m195.49 51.43c0 1.785 0.039993 1.964-1.662 2.566-1.177 0.417-1.686 2.702-1.91 3.747-0.32999 1.54-1.225 1.755-2.792 1.986-2.112 0.312-3.031-1.127-3.973-2.75-1.746-3.008-3.075-7.319 0.38-9.683 1.496-1.023 3.874-1.784 5.562-0.774 1.957 1.172 2.712 3.622 4.395 4.908"/>
   <path d="m263.74 52.18c0 2.591-3.1 5.096-5.599 3.925-1.477-0.691-2.013-2.317-2.972-3.509-1.647-2.046 0.031006-1.007 0.30499-2.822 0.15701-1.047-0.327-1.614 0.66301-1.962 1.042-0.366 1.62-1.844 2.909-1.158 1.053 0.561 1.605 1.802 2.839 2.079 1.76 0.393 1.855 1.933 1.855 3.447"/>
   <path d="m214.99 52.18c-0.83501 1.67-2.206 3.841-3.417 5.251-1.005 1.171-3.507 0.22-4.757 0.011002-0.297-0.049-2.078-2.783-2.339-3.147-0.882-1.229-0.84599-2.826-0.57201-4.252 0.395-2.054 1.476-2.357 3.257-3.111 1.829-0.774 1.657-0.607 2.95 0.543 0.36101 0.322 0.68901 0.11 1.098 0.22 0.635 0.171 1.136 0.825 1.52 1.312 0.791 1.002 1.356 2.268 2.26 3.173"/>
   <path d="m231.49 55.93c-3.15 0-5.635 2.11-8.414-0.417-2.093-1.903-3.264-5.129-0.304-6.898 3.96-2.367 8.718 3.755 8.718 7.315"/>
   <path d="m270.49 49.93c-1.093 2.185-3.138 3.444-5.25 4.5 0-1.379 0.69101-3.982 1.834-4.885 0.96298-0.762 2.449 0.062 3.416 0.385"/>
   <path d="m245.74 55.93c0 2.475-0.095001 6.364-2.965 7.304-3.652 1.196-6.642-3.021-8.645-5.269-0.867-0.972-1.994-3.453-0.644-4.4 1.204-0.844 2.648-1.883 3.931-2.568 3.577-1.909 6.386 2.671 8.323 4.933"/>
   <path d="m205.24 57.43c-1.377 2.755-3.335 4.995-2.25 8.25-2.336 0-4.58 1.339-5.922-1.344-0.627-1.254-1.896-1.974-2.855-2.934-0.97801-0.977 0.21199-2.601 0.67699-3.519 0.87401-1.728 2.129-4.954 4.486-4.954 2.702 9.99e-4 4.19 2.827 5.864 4.501"/>
   <path d="m185.74 60.43c-0.845 0.845-2.924 1.602-2.991 2.99-0.063004 1.31-0.586 0.136-0.759 0.76-0.227 0.817 0.399 1.989-0.016006 2.706-1.818 3.142-6.222-4.217-6.842-4.87-2.637-2.775-0.914-6.15 1.908-8.248 4.169-3.098 7.351 3.962 8.7 6.662"/>
   <path d="m257.74 61.18c-2.188 2.19-4.422 5.328-7.928 3.883-1.489-0.61301-3.307-1.865-3.333-3.663-0.026993-1.803 0.761-3.614 0.761-5.47 2.354 1.177 4.869 0.011002 6-2.25 0.483 0.278 0.528 0.849 0.709 1.311 0.285 0.726 1.395 0.908 1.938 1.372 1.523 1.304 1.853 2.89 1.853 4.817"/>
   <path d="m221.74 56.68c1.388 0.798 0.776 4.217 3 3.75-0.893 1.784-2.831 4.463-5.178 3.792-2.844-0.813-4.193-2.541-5.48-4.973-1.177-2.225-0.498-5.014 2.319-5.022 1.103-0.003002 2.193 0.203 3.293 0.203 1.169 0 1.29 1.672 2.046 2.25"/>
   <path d="m264.49 58.18c-0.63901 1.278-0.63501 2.886-1.694 3.944-1.308 1.309-3.388 1.027-5.056 1.306 1.587-1.213 1.247-3.542 2.604-4.916 1.027-1.04 3.2-2.004 4.146-0.334"/>
   <path d="m232.24 58.18c0.776 1.553 2.588 1.855 3.75 3 0.537 0.528 0.552 1.401 1.278 1.764 0.83501 0.417 1.49 1.057 1.722 1.986 0.94 3.778-3.22 7.446-6.522 4.843-1.265-0.997-1.809-3.235-3.255-3.803-1.162-0.457-2.429-2.346-2.873-3.507-1.091-2.848 3.615-5.426 5.9-4.283"/>
   <path d="m217.24 66.43c-1.834 1.402-0.648 3.249-1.614 4.795-0.67799 1.086-2.969 0.504-4.01 0.529-2.063 0.048004-2.771-0.343-3.553-2.243-0.55-1.34-1.302-2.411-2.068-3.629-1.203-1.914-2.897-5.344 0.43199-6.103 4.925-1.122 7.741 3.579 10.813 6.651"/>
   <path d="m196.24 67.18c-1.427 1.084-1.569 3.069-2.806 4.306-0.55299 0.554 1.744 1.77-0.069 1.814-1.506 0.036995-3.071 0.173-4.172-1.039-1.284-1.415-2.132-2.872-3.613-4.129-1.019-0.865-2.35-1.972-1.645-3.402 0.76-1.543 2.413-2.904 4.072-3.359 3.939-1.082 7.096 2.397 8.233 5.809"/>
   <path d="m177.49 67.93c-1.638 2.458-3.919 5.831-1.5 8.25-1.506-2.617-4.763-0.969-6.83-0.674-0.91699 0.131-1.492-1.943-2.063-2.647-1.014-1.249-2.106-2.433-3.106-3.682-0.95401-1.191-1.08-3.068 0-4.218 0.88199-0.939 2.798-2.55 4.04-2.921 4.909-1.468 6.612 3.044 9.459 5.892"/>
  </g>
  <path d="m321.49 67.93c-2.289 0-4.545 0.435-6.789 0.836-2.447 0.438-5.029 0.257-7.437 0.901-4.45 1.191-8.84 1.795-12.959 4.034-4.077 2.216-8.624 3.257-12.652 5.515-1.771 0.993-3.28 2.421-5.043 3.395-0.849 0.468-3.404 1.213-3.12 2.568 0.90201-1.18 2.54-1.257 3.775-1.892 1.89-0.971 3.364-2.569 5.258-3.529 1.708-0.865 3.601-1.17 5.356-1.897 2.128-0.88 3.969-1.833 6.256-2.279 7.863-1.534 15.593-5.75 23.807-5.543 3.269 0.082001 7.299 1.29 10.275-0.601 3.614-2.295 7.934-2.258 12.06-2.258 3.615 0 7.078 2.202 8.928 5.254 0.97299 1.605 1.417 3.431 1.512 5.293 0.12402 2.441 0.75601 4.399 1.523 6.703-1.279-0.427-2.432-1.18-3.75-1.5-1.389-0.336-2.821 0.31-4.196-0.148-1.564-0.522-3.32-0.438-4.932-0.80199-1.396-0.314-2.79-0.55-4.225-0.55-7.407 0-14.841-0.164-22.131 1.369-3.229 0.67899-6.465 1.531-9.507 2.831-3.152 1.348-6.062 3.198-9.221 4.532-2.725 1.15-5.171 2.842-7.67 4.399-2.879 1.793-5.711 2.67-8.811 3.889-2.718 1.068-5.575 2.472-8.176 3.815-2.759 1.425-4.916 2.94-7.438 4.72-2.691 1.898-5.268 3.952-7.922 5.899-2.749 2.019-6.062 3.472-8.669 5.618-2.045 1.683-4.416 3.001-6.758 4.248-1.149 0.612-2.557 0.775-3.642 1.481-1.273 0.828-2.058 1.646-3.544 2.17-7.061 2.49-14.058 5.159-21.161 7.527 0.75601-2.267 2.093-2.714 4.025-3.826 2.137-1.229 3.297-3.457 4.775-5.332 1.764-2.236 3.835-4.204 5.627-6.415 1.963-2.42 3.778-4.928 5.954-7.17 4.315-4.445 7.733-9.508 11.687-14.253 1.888-2.265 3.988-4.344 5.815-6.661 1.98-2.511 3.488-5.353 5.336-7.959 1.435-2.024 2.981-2.841 5.312-3.542 3.41-1.026 6.807-2.107 10.198-3.192 6.27-2.004 12.47-4.219 18.606-6.598 6.072-2.354 12.494-3.132 18.697-5.014 5.43-1.644 11.002-7e-3 14.971 3.964" fill="#608a46"/>
  <g fill="#fadb86">
   <path d="m249.49 70.18c-1.214 1.214-2.881 3.926-4.938 3.46-1.513-0.343-2.946-2.237-4.047-3.308-1.65-1.606 0.17799-1.007 0.13701-2.298-0.041-1.319-0.90201-2.564-0.90201-3.854 1.148 0.574 5.811 1.914 5.25-0.75 1.887 1.887 6.196 3.359 4.5 6.75"/>
   <path d="m257.74 69.43c0.47202 2.242-2.061 2.169-3.558 2.809-0.504 0.215-3.769 1.587-3.607 0.136 0.114-1.037 1.021-1.641 1.019-2.764-0.003998-1.801 0.73599-2.417 2.342-3.193 0.629-0.304 2.199-1.56 2.847-0.992 1.352 1.188 1.785 2.348 0.957 4.004"/>
   <path d="m226.24 65.68c1.832 0.916 2.93 2.468 3.992 4.155 0.89 1.416 3.787 3.463 5.546 3.123 0.86101-0.167 1.378-0.208 1.628-1.036 0.227-0.74799 1.098-0.964 1.741-0.675 1.473 0.662 2.044 2.352 3.16 3.401 1.444 1.357 1.753 2.316 0.703 4.08-0.793 1.333-2.064 3.022-3.564 3.613-1.812 0.714-3.327-0.438-4.741-1.33-0.681-0.43-1.603-0.703-1.985-1.478-0.28099-0.571-0.409-1.252-1.229-1.104 0.94099-1.882 1.5-3.887 1.5-6-0.936 0.533-0.47 1.419-0.75 2.25-0.27901 0.827-0.96501 1.651-1.557 2.28-0.836 0.886-3.146 3.042-4.358 1.829-0.558-0.55901-1.33-0.129-1.983-0.43-0.664-0.305-1.006-1.21-1.431-1.747-1.566-1.979-3.792-3.289-5.671-4.933 0.235-0.265 0.485-0.515 0.75-0.75-0.83301 0.19-0.949-0.777-0.921-1.352 0.061996-1.261 0.981-2.063 1.929-2.763 1.904-1.406 5.015-2.247 7.241-1.133"/>
   <path d="m207.49 70.93c0.702 1.406 1.774 2.832 1.5 4.5-0.132 0.795-0.75 1.419-0.75 2.25 0 0.817 0.50101 1.505 0.75 2.25 0.12601-0.803-1.137-2.674-2.035-1.844-0.73599 0.68-2.68 2.276-3.875 1.776-1.819-0.76-3.294-2.055-4.626-3.479-0.99501-1.064-3.021-2.578-3.435-3.995-0.65201-2.238 2.96-4.298 4.604-4.951 1.421-0.563 3.191-0.12399 4.373 0.787 1.314 1.009 1.46 2.907 3.494 2.706"/>
   <path d="m188.74 73.93c-1.869 1.869-2.25 4.208-2.25 6.75-1.188-2.086-6.379 1.524-6.583 0.412-0.062012-0.33701 0.336-0.706 0.49799-0.954 0.36202-0.556-0.58499-1.665-0.91399-2.053-1.186-1.399-2.552-2.514-2.683-4.49-0.19299-2.911 2.35-5.391 5.326-5.125 2.923 0.26 4.741 3.594 6.606 5.46"/>
   <path d="m166.24 75.43c-0.793 2.379-2.719 4.246-3.031 6.804-0.10399 0.86-0.86699 0.754-1.513 0.717-1.401-0.078995-2.822 0.32301-3.706 1.479 0-1.346-0.554-2.111-1.5-3 0.001007-0.836-2.18-1.978-2.937-3.1-1.683-2.494 0.91-5.95 3.098-7.159 2.141-1.183 3.344-2.75 5.742-0.88599 1.682 1.308 2.905 3.261 3.847 5.145"/>
   <path d="m216.49 73.18c1.299 1.298 2.425 2.788 3.906 3.895 1.283 0.958 3.486 1.511 3.72 3.377 0.353 2.827-3.354 6.149-6.126 5.478-3.09-0.748-6.742-3.534-7.5-6.75-0.59-2.502 3.334-6.56 6-6"/>
   <path d="m252.49 77.68c-1.349 1.031-1.737 3.245-3.547 3.677-1.315 0.314-2.525 0.109-3.797 0.745-1.059 0.529-1.804-0.82-2.406-1.422 3.214 0 2.085-4.421 3.876-6.017 2.056-1.832 5.874 0.492 5.874 3.017"/>
   <path d="m199.99 79.93c0.621 0.622 1.201 1.665 2.25 1.5-2.188 1.672-2.729 5.44-5.761 6.016-2.928 0.556-5.671-2.474-7.198-4.576-1.784-2.456-2.291-5.885 0.786-7.56 3.624-1.973 7.526 2.221 9.923 4.62"/>
   <path d="m178.99 82.93c0.271 1.29-1.667 2.612-1.165 3.901 0.442 1.134-0.59001 1.443-1.729 1.986-1.392 0.664-3.096 1.402-4.649 1.376-1.399-0.024002-4.457-1.621-4.457-3.291 0-2.038-2.803-1.867-2.261-3.977 0.431-1.677 1.641-3.592 2.981-4.665 5.017-4.013 8.939-0.013 11.28 4.67"/>
   <path d="m237.49 84.43c-1.095 2.189-2.232 4.389-4.673 5.284-0.54199 0.199-2.509 1.482-2.907 1.409-0.696-0.129-1.129-1.217-1.659-1.638-1.234-0.979-4.333-2.325-4.112-4.28 0.093002-0.822 1.352-0.765 1.352-1.65 0-0.985 0.30299-2.28-0.75-2.875h3.892c0.62999 0 1.746-1.112 2.331-0.528 0.925 0.925 1.676 2.041 2.777 2.778 1.134 0.758 2.501 1 3.749 1.5"/>
   <path d="m156.49 85.93c-2.605 1.303-3.945 3.917-3 6.75-1.094 0-2.599 1.194-3.641 0.637-0.80699-0.433-1.213-1.463-1.714-2.177-1.625-2.314-4.419-4.33-2.863-7.536 1.043-2.148 3.971-3.038 6.216-2.967 1.089 0.033997 1.946 0.533 2.43 1.524 0.68301 1.399 1.886 2.396 2.572 3.769"/>
   <path d="m216.49 88.18c0 2.379 0.44501 3.506-1.706 4.972-2.022 1.378-1.753 2.855-4.614 2.591-2.459-0.227-3.419-2.081-4.929-3.644-0.68401-0.708-1.688-1.077-2.517-1.576-0.948-0.571-0.83099-1.041-1.364-1.815-2.381-3.457 2.918-7.223 6.12-7.3 4.127-0.098 5.745 5.139 9.01 6.772"/>
   <path d="m193.99 90.43c-2.136 2.136-2.856 5.917-6.666 5.189-3.689-0.705-7.064-4.955-7.625-8.567-0.3-1.932 1.367-2.638 2.554-3.795 1.437-1.401 3.1-1.54 4.875-0.597 3.144 1.67 4.44 5.347 6.862 7.77"/>
   <path d="m245.74 85.18c0 4.514-5.686 6.479-9.45 5.208-1.137-0.383 0.082001-1.829 0.463-2.276 0.422-0.495 0.812-0.505 1.381-0.718-0.067001 0.025002 0.34801-1.186 0.343-1.172 0.342-0.835 0.464-2.066 1.305-2.589 1.036-0.643 1.459 0.072998 1.459-1.452 1.622 0.811 2.876 2.187 4.499 2.999"/>
  </g>
  <path d="m367.24 91.18c1.239 3.716 3.306 7.195 0 10.5-1.48-1.125-1.554-3.106-2.328-4.656-0.849-1.697-1.965-3.387-3.311-4.732-0.53699-0.538-1.133-1.017-1.783-1.412-1.002-0.60899-1.262-1.27-2.047-2.066-0.689-0.7-1.626-1.092-2.216-1.9-0.604-0.828-1.085-1.751-1.815-2.482 4.696 1.563 10.983 1.714 13.5 6.748" fill="#608a46"/>
  <path d="m169.24 91.93l1.5 0.75c-1.887 0.943-2.601 2.951-3.484 4.719-0.51401 1.028-1.689 0.028999-2.315 1.108-0.502 0.55299-1.699 0.173-2.326 0.173-1.178 0-3.447-1.57-4.063-2.564-1.252-2.02-3.122-2.754-3.568-5.359-0.659-3.85 5.38-6.537 8.321-4.835 1.417 0.819 1.588 1.648 2.498 2.714 0.71899 0.845 2.23 3.547 3.437 3.294" fill="#fadb86"/>
  <path d="m271.99 85.93c0.32199-0.56 0.86801-0.883 1.5-0.75l-1.5 0.75" fill="#010101"/>
  <g fill="#fadb86">
   <path d="m229.24 94.93c-2.056 1.571-3.669 6.585-7.063 5.945-1.235-0.233-2.428-0.955-3.419-1.702-0.67601-0.509-2.077-2.936-2.839-2.852-0.425 0.046997 0.47 2.14 0.644 2.358 1.346 1.684 3.252 3.028 5.351 3.573 1.049 0.272 2.155 0.329 3.216 0.089005 0.72501-0.164 1.177-1.383 1.926-1.343 1.145 0.060997 3.649 1.419 4.339 2.398 0.832 1.18-1.146 3.196-1.898 3.936-1.294 1.272-3.445 0.89-5.069 1.625-1.907 0.863-3.691-0.798-2.163-2.538 1.387-1.577 1.154-2.132 0.22801-3.989-0.703 1.403-1.26 4.045-2.794 4.788-1.089 0.527-1.51 1.238-2.556 1.963-1.026 0.71-3.486-1.453-4.427-1.915-1.407-0.691-2.611-2.018-3.958-2.888-1.115-0.72-1.666-1.254-0.54001-2.3 1.385-1.285 2.562-2.444 3.797-3.901 1.322-1.559 2.722-3.032 4.229-4.412 1.918-1.757 1.748-3.166 1.748-5.585 2.966 1.483 4.145-2.887 6.408-0.223 1.86 2.19 3.908 4.174 4.84 6.973"/>
   <path d="m148.99 94.18c-1.205 0.915-0.982 2.936-2.391 3.65-1.587 0.804 0.354 2.784-0.89499 3.684-2.969 2.141-6.051-1.957-7.366-3.957-1.738-2.643-1.886-6.557 1.614-7.75 1.766-0.603 3.012-1.588 4.663-0.094002 1.578 1.428 2.394 3.476 4.375 4.467"/>
   <path d="m203.74 93.43c2.624 1.312 6.393 3.287 4.336 6.542-1.003 1.587-3.218 3.029-5.067 3.348-0.95799 0.166-1.853-0.13-2.492-0.874-0.701-0.814-2.244-1.061-3.144-1.772-0.672-0.532-1.63-0.43401-2.204-1.098-0.509-0.588-0.683-1.411-0.89101-2.137-0.635-2.211-1.627-3.408-0.047989-5.624 1.012-1.421 3.177-2.856 4.962-2.88 2.187-0.030998 3.376 3.088 4.548 4.495"/>
  </g>
  <path d="m304.99 89.68c-3.954 3.954-7.546 8.237-11.979 11.684-2.067 1.607-4.066 3.199-5.816 5.159-1.694 1.898-3.702 3.168-5.485 4.934-4.102 4.063-8.287 8.022-12.185 12.285-3.614 3.954-7.394 7.761-11.683 10.989-4.655 3.503-9.127 7.223-13.673 10.863-4.249 3.402-8.947 7.236-13.734 9.827-5.342 2.891-10.454 6.188-15.817 9.04-5.332 2.835-9.988 5.47-16.128 5.47 13.588-8.153 27.197-16.317 40.094-25.544 6.493-4.646 13.305-8.868 19.551-13.854 2.792-2.229 5.345-4.688 7.924-7.153 1.506-1.44 4.816-4.432 3.682-6.699-2.944 2.946-5.922 5.86-8.795 8.876-2.792 2.93-6.234 5.08-9.532 7.38-3.126 2.18-5.724 5.028-8.897 7.144-3.614 2.409-7.534 4.317-11.174 6.693-7.18 4.688-14.751 8.747-21.976 13.37-3.341 2.138-6.697 4.29-10.128 6.281-1.467 0.85199-2.662 1.954-4.054 2.882-1.516 1.011-3.617 0.61699-5.33 0.627-4.02 0.022995-7.878 0.43399-11.84 1.073-4.135 0.668-7.789 0.946-11.688 2.595-3.466 1.466-7.333 1.703-10.892 2.911-4.251 1.442-8.146 3.327-12.123 5.378-3.271 1.688-7.067 2.756-10.618 3.689-3.693 0.97099-6.398 3.342-9.975 4.567-3.511 1.204-6.522 3.468-9.781 5.185-3.862 2.034-7.8 3.966-11.949 5.349 3.36-2.24 6.218-5.116 9.475-7.488 3.432-2.5 7.336-4.248 10.989-6.385 3.517-2.057 6.701-4.48 10.054-6.769 1.294-0.883 2.74-1.442 4.235-1.883 2.003-0.591 3.567-2.09 5.199-3.314 1.265-0.95 2.864-1.284 4.174-2.158 1.598-1.066 3.356-1.853 5.095-2.655 4.213-1.944 8.325-4.098 12.464-6.193 8.127-4.112 16.331-8.07 24.45-12.197 15.7-7.982 31.98-15.168 47.262-23.928 7.299-4.185 14.228-9.036 20.913-14.116 6.266-4.761 13.219-9.434 20.646-12.029 2.416-0.844 4.541-2.241 6.809-3.41 2.835-1.462 5.51-1.954 8.481-2.89 2.294-0.723 4.896-1.711 7.053-2.765 2.114-1.033 4.178-3.072 6.702-2.821" fill="#608a46"/>
  <g fill="#fadb86">
   <path d="m238.99 94.93c-2.049 4.094-7.216 4.5-11.25 4.5 0.25-0.749 1.532-5.453 2.487-5.404 1.441 0.074997-0.11301-1.549 1.192-1.942 0.517-0.156 1.961-0.877 2.442-0.751 2.019 0.529 3.491 2.426 5.129 3.597"/>
   <path d="m184.99 99.43c-1.731 0.865-2.398 1.968-3 3.75-0.52901 1.568-2.126 3.75-3.972 3.75-1.035 0-0.838-0.858-1.278-1.5-0.603-0.88-1.376-1.654-2.258-2.254-1.572-1.069-4.037-1.595-4.492-3.746-0.532-2.531 2.962-7.886 5.652-8.132 3.661-0.335 7.968 5.372 9.348 8.132"/>
   <path d="m160.24 100.93c0.151 1.269-0.75 1.737-0.75 2.696 0 1.711-0.403 2.58-2.104 3.18-2.187 0.771-5.059 2.156-5.531 4.756-0.46501 2.562-0.14601 3.574-3.096 3.57-1.803-0.002007-3.261 3.375-4.742 1.848-1.778-1.832-5.746-8.34-4.367-10.747 1.476-2.577 3.943-3.587 6.765-2.436 2.135 0.871 2.338 3.883 4.824 3.883-2.148-3.224-5.65-8.82-1.521-11.974 1.991-1.521 4.747-1.578 6.638 0.208 1.545 1.458 2.185 3.717 3.884 5.016"/>
   <path d="m140.74 103.18c-2.048 2.048-3.699 4.601-2.25 7.5-1.529 0-2.768 0.17-4.101 0.96-1.473 0.872-1.76-0.891-2.871-1.446-2.408-1.205-3.439-5.029-2.629-7.46 0.80499-2.415 3.343-5.822 6.209-5.634 3.028 0.197 4.119 4.049 5.642 6.08"/>
   <path d="m197.74 103.93c2.789 0 2.638 2.973 1.314 4.651-0.67 0.849-1.558 1.673-2.617 1.972-2.04 0.575-3.217 1.647-4.697 3.127 2.17 1.085 3.167-1.274 5.086-1.298 0.664-0.008003 1.045 1.073 1.457 1.447 0.888 0.806 1.971 1.361 2.839 2.185 0.551 0.522 1.01 1.128 1.504 1.7 0.664 0.768 1.678 1.171 2.304 1.915 0.92999 1.104-1.304 3.924-2.1 4.606-1.238 1.062-2.882 1.508-4.493 1.376-0.985-0.081001-1.95-0.367-2.835-0.807-0.93599-0.466-1.172-1.781-2.219-2.055-1.58-0.414-2.752-0.553-2.227-2.553 0.449-1.705 1.105-3.045 0.63101-4.879-0.15001-0.581-0.724-0.888-1.086-1.312-0.423-0.496-0.14801-1.222-0.52501-1.644-0.743-0.831-1.581-1.614-2.561-2.215-1.776-1.09-6.625-4.031-4.506-6.68 1.433-1.791 4.849-5.518 7.32-5.542 1.338-0.013 2.375 0.081993 3.148 1.295 1.238 1.943 2.654 3.101 4.263 4.711"/>
   <path d="m175.24 106.93c0 1.007-0.33 2.43-1.39 2.26 0.312 0.049995-0.858 2.515-0.83 2.816 0.19701 2.119-1.883 2.257-3.593 1.551-3.419-1.41-6.615-2.829-7.75-6.769-0.802-2.783 1.585-6.941 4.909-6.606 3.485 0.35 6.417 4.51 8.654 6.748"/>
   <path d="m218.74 109.93c0.979 0 1.995-0.059998 2.806 0.601 0.854 0.696 1.951 1.91 3.194 1.649-0.731 1.466-1.356 3.448-2.898 4.278-1.762 0.948-4.198 0.223-6.113 0.248-1.565 0.020996-2.319-0.569-1.574-2.146 0.79401-1.681 1.692-2.273 0.086014-3.879-1.443 2.887-4.195 7.365-8.019 6.815-1.904-0.274-3.025-2.454-4.755-3.277-2.287-1.089-2.251-3.036-1.077-4.986 1.913-3.177 5.044-6.275 8.5-3.291 2.963 2.558 5.517 6.154 9.85 3.988"/>
   <path d="m162.49 110.68c1.426 1.426 3.173 2.537 4.395 4.166 1.416 1.887 0.059998 2.117-1.086 3.445-0.94301 1.094-0.32201 2.851-2.005 3.408-2.641 0.875-4.917-0.826-7.147-1.94-1.617-0.80801-1.754-3.176-2.962-4.384-1.368-1.368-1.047-3.893 0.71199-4.772 1.509-0.754 2.699-2.922 4.538-2.922 1.123 0 0.79799 0.969 1.37 1.585 0.608 0.654 1.713 0.592 2.185 1.414"/>
   <path d="m127.99 108.43c1.28 1.28 3.016 2.362 3.548 4.2 0.446 1.543-1.342 2.6-1.282 4.078 0.17999 4.385-4.365 2.07-6.767 4.472-1.703-2.553-5.196-5.356-3.486-8.778 0.892-1.784 2.506-2.643 4.158-3.592 1.411-0.811 2.93 1.183 3.829-0.38"/>
   <path d="m187.24 112.18c1.001-0.208 1.371 3 3 3-0.737 2.213-0.187 6.277-2.846 7.329-4.392 1.737-6.897-3.865-9.769-5.775-2.088-1.39-3.735-5.753-1.491-7.726 1.687-1.482 4.284-0.37 6.128 0.089996 2.093 0.521 3.939 1.003 4.978 3.082"/>
   <path d="m142.99 118.18h0.75c-1.248 1.248-2.827 2.489-3.148 4.335-0.17601 1.015 0.17999 1.729-0.957 2.21-1.004 0.425-2.753 1.777-3.863 1.457-1.505-0.435-2.644-3.673-3.042-4.982-0.52101-1.712-1.366-3.767-0.504-5.491 0.85799-1.716 3.152-1.972 4.699-2.745 1.035-0.518 2.784 0.811 3.586 1.339 1.458 0.958 1.176 2.881 2.479 3.877"/>
   <path d="m183.49 123.43c-1.058 3.177-2.728 7.756-6.631 8.271-1.773 0.23399-3.618-2.099-4.893-3.07-1.964-1.496-3.361-3.046-4.623-5.148-1.261-2.101-1.03-3.21 0.72101-4.891 1.255-1.205 2.761-2.74 4.615-2.847 2-0.11401 3.036 2.246 4.48 3.226 1.02 0.692 1.889 1.551 2.74 2.436 0.977 1.016 2.366 1.41 3.591 2.023"/>
   <path d="m153.49 117.43c0 3.29 4.39 3.837 5.056 6.694 0.483 2.074-1.754 2.881-2.479 4.404-1.016 2.133-2.742 3.345-5.169 2.522-1.824-0.618-3.803-1.93-4.755-3.585-1.292-2.247-3.686-2.312-1.819-5.208 2.097-3.257 4.865-6.978 9.166-4.827"/>
   <path d="m217.24 120.43c-0.97299 0.553-0.412 1.469-0.784 2.306-0.41301 0.931-1.56 1.664-2.356 2.24-1.739 1.257-3.639 1.455-5.725 1.451-0.90599-0.001999-3.885 0.146-3.885-1.303 0-1.814 2.246-3.188 3-4.694-0.373 0.11-0.62-0.001999-0.743-0.337-0.082001-0.61401 0.961-0.412 1.236-0.49 0.86101-0.244 1.117-1.275 2.024-1.469 1.27-0.27 2.539-0.949 3.852-0.454 1.393 0.526 2.362 1.73 3.381 2.75"/>
   <path d="m119.74 118.93c-0.313 1.493 1.888 2.441 2.177 3.756 0.308 1.399-1.658 2.221-2.075 3.384-0.732 2.045-0.273 3.094-2.466 3.849-0.936 0.32199-2.938 2.622-3.476 1.073-1.125-3.238-3.01-5.908-1.079-9.266 0.697-1.213 1.557-2.795 3.168-2.795 0.665 0 0.897-0.75 1.5-0.75 1.044 0.522 0.987 0.749 2.251 0.749"/>
   <path d="m134.74 127.93c0.171 1.091-1.28 1.7-1.652 2.625-0.44 1.095-0.30701 1.368-1.153 1.768-2.215 1.049-3.745 2.156-5.445 3.856-1.29-2.581-4.327-4.461-5.074-7.289-0.612-2.317 1.047-5.211 2.995-6.405 1.485-0.91 4.252-2.054 5.978-1.442 2.102 0.746 2.757 5.292 4.351 6.887"/>
   <path d="m198.49 127.18c-0.87 1.74-0.979 3.891-3.032 4.688-0.687 0.26601-0.808 0.985-1.43 1.288-0.791 0.385-1.783-0.48001-2.482 0.21899-1.456 1.456-3.304-1.51-4.572-1.753-1.356-0.25899-4.898-1.354-3.783-3.297 0.384-0.67 0.911-1.245 1.332-1.892 0.403-0.619 0.29199-1.644 0.801-2.14 0.47-0.458 1.485-0.076996 2.049-0.153 0.539-0.072998 1.906-1.417 2.137-1.343 3.112 0.999 5.293 4.748 8.98 4.383"/>
   <path d="m166.24 125.68c1.282 1.282 2.232 2.991 3.906 3.828 1.705 0.853 3.46 1.904 4.344 3.672-1.041-0.237-0.828 1.339-0.89101 1.928-0.11499 1.082-1.576 2.388-2.327 3.107-3.168 3.032-5.691 0.332-8.22-1.803-2.005-1.693-6.179-3.759-4.618-7.083 1.583-3.371 4.379-4.506 7.806-3.649"/>
   <path d="m147.49 130.93c1.139 1.139 2.756 1.7 3.75 3-3.065 1.532-3.528 6.161-7.339 6.622-3.68 0.44501-7.359-3.586-8.718-6.524-1.881-4.068 2.125-6.515 5.274-7.735 2.822-1.095 5.398 3.001 7.033 4.637"/>
   <path d="m208.24 129.43c-0.771 1.541-1.104 2.736-2.965 3.018-1.253 0.19-2.595 0.772-3.861 0.727-1.503-0.052994-2.949-0.49899-4.424-0.745 2.214-1.107 2.352-4.846 4.961-5.279 2.352-0.38999 3.938 2.512 6.289 2.279"/>
   <path d="m112.24 131.68c0 2.634-0.094002 5.86-2.937 6.512-1.071 0.24501-1.056 1.843-2.125 1.926-1.315 0.10199-2.277-1.323-2.764-2.35-1.338-2.818-0.277-6.299 2.374-7.924 2.044-1.254 5.787-1.549 5.452 1.836"/>
   <path d="m124.24 135.43c1.096 1.096 1.367 0.98 0.619 2.332-0.564 1.019-0.452 2.252-0.676 3.359-0.283 1.398-1.722 0.729-2.597 1.227-0.991 0.563-2.337 1.814-3.13 2.648-0.563 0.591-2.679 5.439-2.939 5.447-1.133 0.035995-1.978-0.050003-2.883 0.76199-0.807 0.72301-1.882 1.62-2.913 0.763-1.656-1.379-3.548-4.521-3.83-6.674-0.282-2.155 2.747-3.525 4.096-4.646 3.036-2.522 5.717 3.496 7.503 5.282 0-0.881 0.437-3.354-0.172-4.027-0.634-0.702-1.685-0.885-2.404-1.492-1.916-1.616-2.672-4.006-0.955-5.978 1.329-1.526 2.958-3.503 5.226-3.503 2.334 0 3.642 3.087 5.055 4.5"/>
   <path d="m188.74 135.43c0 3.431-3.108 6.729-5.908 8.338-1.37 0.78799-3.913 0.009995-5.174-0.821-1.357-0.894-3.954-1.821-4.568-3.432-0.65901-1.729 1.633-3.236 2.054-4.753 0.146-0.52701-0.093002-1.53 0.689-1.619 1.199-0.135 2.505-0.713 3.686-0.713 2.124 0 1.825-1.959 3.987-0.577 0.77699 0.49699 1.51 0.88599 2.413 1.109 1.282 0.31801 1.954 1.6 2.821 2.468"/>
   <path d="m165.49 142.18c0.375 1.786-1.845 2.987-2.768 4.175-1.73 2.227-2.422 2.027-5.107 1.836-1.135-0.081009-1.146-0.51001-1.783-1.36-0.78999-1.053-2.014-1.741-3.125-2.4-1.354-0.80299-4.723-2.439-4.432-4.439 0.228-1.568 2.392-2.006 3.404-2.902 1.27-1.125 2.311-3.569 4.107-3.933 2.011-0.407 4.341 2.062 5.856 3.042 1.979 1.281 3.848 3.506 3.848 5.981"/>
   <path d="m200.74 136.18c-1.958 0.979-3.926 3.053-5.659 4.409-1.539 1.204-3.817 2.22-5.828 2.264-2.804 0.061996-1.522-1.662-0.265-3.057 0.357-0.396 2.822-3.911 1.252-3.616 2.155 0 3.351-1.087 5.123-1.975 1.795-0.89899 3.801 1.449 5.377 1.975"/>
   <path d="m142.24 142.18c-0.75301 0.576-0.847 1.597-1.5 2.25-0.774 0.774-1.547 1.575-2.417 2.244-0.707 0.54399-1.695 0.40399-2.386 0.978-0.57701 0.48-1.43 1.776-2.32 1.093-1.589-1.22-2.351-2.978-4.165-3.973-1.446-0.793-4.109-2.226-3.584-4.223 0.363-1.379 1.284-2.818 2.281-3.832 2.035-2.07 3.378-2.178 5.847-0.82501 1.694 0.927 3.716 1.476 4.919 3.091 0.621 0.83202 2.03 3.43 3.325 3.197"/>
   <path d="m105.49 142.18c-1.09 0.618-0.383 1.754-0.649 2.691-0.326 1.149-2.163 1.692-3.096 2.164-0.866 0.438-2.042 1.994-3.006 1.133-0.658-0.58699-2.344-2.581-1.984-3.503 0.794-2.031 1.973-5.941 4.311-6.661 2.229-0.68698 3.67 2.667 4.424 4.176"/>
   <path d="m178.99 145.93c0 1.061 0.242 2.219-0.758 2.94-1.129 0.814-2.01 2.071-3.089 2.813-1.47 1.012-4.644 0.17801-5.86-0.885-1.273-1.111-2.7-2.221-3.744-3.559-1.035-1.326 2.936-3.898 0.701-5.06 2.757 0 4.33-3.17 6.75-0.75 0.421 0.421 0.332 1.082 0.75 1.5 0.342 0.34201 1.356 0.66501 1.814 0.955 1.063 0.67201 2.762 0.87201 3.436 2.046"/>
   <path d="m151.24 145.18c0.653 0.854 1.852 0.922 2.502 1.81 0.574 0.784 0.842 1.737 1.776 2.204 2.589 1.294 4.402 1.624 6.812-0.222 1.837-1.406 3.432-0.42299 3.994 1.516 0.52701 1.817 2.958 2.214 4.416 2.942-1.505 0.75299-2.888 1.746-4.447 2.393-1.457 0.604-2.881 0.65701-4.258 1.475-1.586 0.942-2.359-0.001999-3.686-0.97-0.63599-0.464-2.561-1.157-2.333-2.231 0.158-0.748 0.842-1.469 1.034-2.271 0.149-0.62599-0.123-2.029-0.981-1.007-0.845 1.005-0.73799 2.415-1.692 3.4-1.047 1.08-2.578 1.803-4.101 1.609-3.115-0.396-4.833-3.456-7.243-5.08-1.403-0.944-1.374-1.488-1.469-3.039-0.057999-0.92999-0.927-0.79599-0.339-1.73 0.765-1.213 2.544-3.434 4.016-3.8 0.90199-0.22499 2.732-0.537 3.264 0.528 0.31801 0.636 0.66 1.278 1.236 1.722 0.54599 0.42302 1.099 0.055008 1.499 0.75101"/>
   <path d="m133.24 149.68c-0.146 0.586 0.164 0.896 0.75 0.75-0.70599 0.70599-1.552 1.278-2.149 2.092-0.674 0.916-0.692 2.12-1.205 3.116-0.46199 0.89801-1.517 0.841-2.293 1.278-0.757 0.427-1 0.974-1.923 1.119-4.481 0.70801-5.918-3.175-8.398-5.948-1.269-1.418-0.308-3.576 0.598-4.903 0.79401-1.165 3.767-3.517 5.166-3.53 4.334-0.042999 5.268 6.026 9.454 6.026"/>
   <path d="m187.24 144.43c-1.235-0.25301-1.711 1.273-2.433 1.93-0.607 0.552-1.484 0.28101-2.175 0.62001-0.88699 0.43399-1.463 1.271-2.143 1.951 0-0.87799 0.21301-1.552 0.75-2.25 0.27501-1.087 0.28001-0.51599 1.278-1.014 1.809-0.905 2.871-2.164 4.723-1.237"/>
   <path d="m97.987 150.43c-1.202 0.685-0.72 3.161-1.527 4.206-0.418 0.54201-1.287 0.66101-1.818 1.266-0.655 0.74699-1.912 0.694-2.398-0.23201-1.033-1.967 0.736-5.135 1.939-6.622 2.236-2.767 2.757-0.71098 3.804 1.382"/>
   <path d="m104.74 148.18c0.713 1.427 1.573 2.703 3.081 3.372 1.028 0.457 0.673 2.193 2.169 1.878-1.053 1.053-2.099 2.25-2.545 3.702-0.254 0.825-0.213 2.376-1.47 2.253-1.317-0.129-1.043 0.896-1.827 1.451-1.058 0.748-2.233-0.88599-2.576-1.63-0.852-1.854-4.23-3.479-2.977-5.916 1.075-2.09 3.504-5.11 6.145-5.11"/>
   <path d="m141.49 151.18c1.606 1.605 2.887 3.637 4.985 4.664 1.419 0.694 3.456 1.522 2.712 3.382-1.117 2.794-5.364 8.288-8.86 5.72-1.08-0.79199-1.968-1.831-3.181-2.438-0.875-0.438-0.787-1.648-1.747-2.038-2.112-0.856-3.416-3.874-2.816-6.058 0.633-2.31 3.301-3.248 5.076-4.471 0.98099-0.67499 4.232-0.664 3.831 1.239"/>
   <path d="m116.74 152.68c-0.226 2.277 2.614 4.81 4.328 5.885 0.721 0.452 2.456 0.629 2.529 1.698 0.11 1.592-1.607 2.749-1.607 4.417-2.288-1.144-3.059 0.618-5.019 1.4-1.681 0.671-4.051-1.65-5.15-2.632-1.443-1.288-4.192-3.568-2.956-5.747 1.138-2.004 3.554-4.736 5.625-5.771-0.289 1.269 1.614 0.75 2.25 0.75"/>
   <path d="m158.74 158.68c-2.061 2.062-4.698 3.515-7.209 4.835-1.153 0.606-2.551 0.01001-2.569-1.385-0.018997-1.445 1.356-2.528 2.278-3.45-1.272 0.31599-0.517-1.109 0.009003-1.403 0.771-0.431 1.707-0.173 2.456-0.657 2.12-1.371 3.37 0.72801 5.035 2.06"/>
   <path d="m97.987 157.93c1.742 1.742 4.056 2.942 3.452 5.731-0.685 3.162-3.73 2.601-5.522 5.206-0.423 0.616 0.18 1.453-0.374 2.007-0.578 0.578-1.288 1.007-1.999 1.397-0.977 0.53799-2.677 2.008-3.827 1.951-3.347-0.166-1.226-5.751-0.84901-7.409 0.78101-3.437 2.531-1.272 3.727 0.68201 0.422 0.69 0.92 2.404 1.957 2.315 1.499-0.12801-0.398-2.787-0.76-3.108-2.022-1.797-3.773-4.49-1.384-6.935 0.946-0.96698 4.403-3.884 5.579-1.837"/>
   <path d="m136.24 163.18c0.948 0.94699 2.07 3.4 3.75 3-0.511 1.021-0.69 2.261-1.514 3.104-0.89002 0.91299-2.135 1.685-3.156 2.454-1.872 1.411-3.951 1.446-5.948 0.19499-2-1.254-2.816-3.059-4.268-4.756-0.422-0.494-0.922-0.922-1.311-1.445-0.506-0.68201 0.65-0.776 0.054001-1.288-2.143-1.841 4.957-6.136 6.201-6.233 2.724-0.21298 3.169 5.625 6.192 4.969"/>
  </g>
  <path d="m70.237 192.43c-0.76 2.281-1.072 4.776-2.443 6.811-1.347 1.998-2.207 4.591-3.89 6.269-1.402 1.397-1.936 3.442-4.03 2.889-0.958-0.254-2.418 0.131-3.237-0.409-1.058-0.698-1.63-0.55901-2.9-0.55901 1.887-3.774 4.203-7.36 5.545-11.386 1.446-4.339 2.183-8.888 3.247-13.327 1.872-7.807 3.537-15.977 8.458-22.537v15.982c0 5.432-0.75 10.834-0.75 16.267" fill="#608a46"/>
  <g fill="#fadb86">
   <path d="m113.74 166.93c0.671 1.185 3 0.033997 3 1.722 0 1.145-2.515 2.61-0.75 3.528-1.332 0.66699-3.116 2.02-4.665 1.91-1.375-0.098007-3.057-1.143-4.087-2.001-1.62-1.35-4.812-5.295-4.193-7.582 0.291-1.071 1.149-2.033 2.142-2.513 1.297-0.62799 1.808 0.059006 2.89 0.612 1.182 0.605 2.015 1.905 3.215 2.327 1.034 0.36502 1.322 2.2 2.448 1.997"/>
   <path d="m148.99 165.43c-3.248 1.625-5.83 5.25-9.75 5.25 0.713-0.714 1.5-1.367 1.5-2.472 0-0.843 0.618-1.203 1.375-1.271 2.576-0.229 4.287-1.169 6.125-3.008-0.22 0.88501 0.97099 0.61601 0.75 1.501"/>
   <path d="m132.49 174.43c-1.443 2.886-5.807 5.453-9.042 4.496-1.19-0.35301-3.708-1.697-3.708-3.152 0-1.75-1.883-2.349-2.198-3.944-0.668-3.383 3.532-7.176 6.315-4.184 1.274 1.369 1.577 3.342 3.016 4.605 1.484 1.304 3.631 2.179 5.617 2.179"/>
   <path d="m103.99 170.68c1.492-0.23401 1.904 1.463 2.518 2.434 0.922 1.459 2.765 2.083 4.232 2.816-1.21 0.689-0.321 2.395-1.668 3.157-1.258 0.713-2.871 0.632-3.943 1.704-0.858 0.858-2.093-0.48799-2.639-1.073-1.205-1.29-1.527-2.291-3.072-3.226-0.987-0.597-2.319-0.884-2.172-2.236 0.083-0.768-0.357-1.021-0.64899-1.667-0.278-0.615 0.426-1.553 0.673-2.065 0.74-1.539 1.871-2.784 3.696-2.85 1.992-0.070999 2.297 1.554 3.024 3.006"/>
   <path d="m88.987 175.93c-1.148 2.297-1.889 4.888-3.75 6.75 0-3.191 1.5-5.797 1.5-9l2.25 2.25"/>
   <path d="m101.74 181.18c1.771 1.008 0.236 2.325-0.263 3.466-0.79 1.806-0.298 2.678-2.365 3.636-1.112 0.51701-2.234 1.081-2.723 2.275-0.081001 0.19699-0.915 2.623-0.774 2.623-1.452 0-2.593 0.451-3.662 1.433-1.683 1.543-2.328 1.742-4.196 0.22-2.448-1.994-5.607-4.637-4.11-7.923 0.606-1.331 3.52-5.567 5.243-3.671 1.021 1.124 1.12 2.118 2.516 2.932 1.741 1.014 3.276 2.355 5.084 3.26 0-3.026-1.914-2.531-3.794-4.271-0.854-0.78999-1.97-1.232-2.37-2.417-0.383-1.133-0.283-2.258-1.336-3.062 1.168 0.267 0.791-2.31 1.355-2.868 1.015-1.007 2.22-2.043 3.465-2.749 0.983-0.55701 2.344 2.259 3.272 2.761 1.915 1.033 2.538 3.295 4.658 4.355"/>
   <path d="m123.49 180.43c-1.591 0.795-3.08 1.781-4.528 2.81-0.843 0.599-3.452 1.555-4.48 1.54-1.012-0.014999-2.76-1.525-2.624-2.581 0.16499-1.264-0.78101-2.144-0.588-3.392 0.268-1.729 3.108-5.421 5.153-5.077 1.172 0.198 1.828 1.628 2.487 2.462 1.294 1.636 2.679 3.287 4.58 4.238"/>
   <path d="m111.49 184.93c1.236 0.67099-4.81 7.662-7 5.443-2.552-2.584-0.311-5.902 1.724-7.765 0.808-0.739 2.251-2.923 3.484-1.525 0.958 1.086 0.563 2.906 1.792 3.847"/>
   <path d="m103.24 191.68c0 2.022-1.792 3.861-3.425 4.815-1.994 1.165-3.735-0.81601-3.12-2.751 0.482-1.516 1.398-3.509 3.05-4.017 1.447-0.44499 3.808-0.040985 3.495 1.953"/>
   <path d="m88.987 197.68c-2.16 2.16-5.084 7.113-8.802 5.821-2.592-0.901 2.334-9.952 2.802-11.821l6 6"/>
   <path d="m97.237 198.43c-1.011 1.18-1.971 2.436-3.088 3.517-0.282 0.273-2.089 1.968-0.662 1.733-0.566 0.56599-1.387 1.543-2.302 1.44-0.783-0.087006-1.244-1.125-1.952-1.497-0.941-0.495 1.132-4.877 1.605-5.773 0.926-1.753 2.018-2.513 3.978-2.5 1.326 0.008011 1.183 2.369 2.421 3.08"/>
   <path d="m88.987 205.93c-1.492 0-2.806 0.896-4.321 0.817-0.961-0.049011-0.908-1.124-1.679-1.567 0.451 2.872-4.161 3-6 3 0.862-1.725 1.089-3.186 3.377-3.022 2.067 0.147 3.745 0.067993 4.979-1.807 1.99-3.023 2.823 0.93501 3.644 2.579"/>
   <path d="m268.99 206.68l-1.5-0.75h2.25c-0.228 0.27101-0.478 0.52101-0.75 0.75"/>
   <path d="m37.987 263.68c1.849-1.848 3.441-1.5 6-1.5l-6 1.5"/>
  </g>
  <path d="m196.14 173.41h-0.75c0.30298 0.52701 0.87698 0.88101 1.5 0.75-4.346 1.086-7.727 3.43-11.632 5.554-2.056 1.119-4.26 1.687-6.33 2.735-2.179 1.104-4.048 2.961-6.655 2.961h-8.34c-1.071 0-1.993-0.634-3.042-0.75-1.271-0.143-2.263-0.164-3.451-0.70401-4.34-1.974-8.898-4.546-13.799-4.546 4.292-1.429 9.505 0.60199 13.986 0.146 2.429-0.246 4.025-1.211 6.558-0.53299 2.692 0.72 5.443 1.495 8.258 1.036 2.058-0.33499 3.655-1.383 4.995-2.929 1.733-2 3.509-2.498 5.796-3.643 2.014-1.009 3.243-0.12698 5.336 0.116 2.523 0.29401 5.047-0.19299 7.57-0.19299" fill="#608a46"/>
 </g>
</svg>
